# xmcd CD database file
#
# Track frame offsets:
#	150
#	19388
#	38407
#	54548
#	69368
#	94851
#	111278
#	129305
#	152169
#	165952
#	185709
#	203769
#	222911
#
# Disc length: 3194 seconds
#
# Revision: 0
# Processed by: cddbd v1.5.1PL0 Copyright (c) Steve Scherf et al.
# Submitted via: CDex 1.51
#
DISCID=ad0c780d
DTITLE=AJI - For You
DYEAR=2003
DGENRE=Acapella
TTITLE0=Color Of Season
TTITLE1=Till It's Over
TTITLE2=BRIGHTER DAYS
TTITLE3=ハルカゼ
TTITLE4=いつもの言葉で
TTITLE5=Do you love me now
TTITLE6=Snow Magic [winter holiday mix]
TTITLE7=Rain
TTITLE8=farewell [A Cappella]
TTITLE9=Walk With You
TTITLE10=この街に。。。
TTITLE11=Listen To Reason
TTITLE12=DOOR
EXTD=YEAR: 2003
EXTT0=
EXTT1=
EXTT2=
EXTT3=
EXTT4=
EXTT5=
EXTT6=
EXTT7=
EXTT8=
EXTT9=
EXTT10=
EXTT11=
EXTT12=
PLAYORDER=
